<svg width="47" height="42" viewBox="0 0 47 42" fill="none" xmlns="http://www.w3.org/2000/svg">
<path d="M4.10011 3.6567L3.95665 3.80016C-1.31697 9.07378 -1.31875 17.6265 3.9505 22.8958L22.2667 41.212C22.8555 41.8008 23.8076 41.8016 24.3972 41.212L42.7134 22.8958C47.9873 17.6219 47.9867 9.07957 42.7073 3.80016L42.5638 3.6567C37.6841 -1.22302 29.7727 -1.21867 24.8857 3.6684L23.685 4.8691C23.4926 5.06143 23.1703 5.06044 22.9789 4.8691L21.7782 3.6684C16.895 -1.21484 8.97563 -1.21882 4.10011 3.6567ZM22.2718 5.57621C22.8527 6.15711 23.8083 6.16003 24.3921 5.57621L25.5928 4.3755C30.0895 -0.121215 37.3677 -0.125216 41.8567 4.3638L42.0002 4.50727C46.8891 9.39617 46.8896 17.3054 42.0063 22.1887L23.6901 40.5049C23.4913 40.7037 23.1723 40.7034 22.9738 40.5049L4.6576 22.1887C-0.221048 17.31 -0.219402 9.39042 4.66375 4.50727L4.80722 4.3638C9.29205 -0.121027 16.5783 -0.117372 21.0711 4.3755L22.2718 5.57621Z" fill="black"/>
</svg>
