<svg width="175" height="32" viewBox="0 0 175 32" fill="none" xmlns="http://www.w3.org/2000/svg">
<path fill-rule="evenodd" clip-rule="evenodd" d="M15 14.9153C15 6.68084 21.7188 0 30 0C30 8.23441 23.2812 14.9153 15 14.9153Z" fill="#212120"/>
<path fill-rule="evenodd" clip-rule="evenodd" d="M15 14.9152C15 23.2432 21.7188 30 30 30C30 21.672 23.2812 14.9152 15 14.9152Z" fill="#212120"/>
<path fill-rule="evenodd" clip-rule="evenodd" d="M15 14.9153C15 6.68084 8.2812 0 0 0C0 8.23441 6.7188 14.9153 15 14.9153Z" fill="#4169E1"/>
<path fill-rule="evenodd" clip-rule="evenodd" d="M15 14.9152C15 23.2432 8.2812 30 0 30C0 21.672 6.7188 14.9152 15 14.9152Z" fill="#212120"/>
<path d="M174.941 26H162.761V4.57999H174.941V7.78999H166.601V13.25H174.401V16.46H166.601V22.76H174.941V26Z" fill="#212120"/>
<path d="M157.328 18.44C157.328 19.92 157.008 21.26 156.368 22.46C155.748 23.64 154.798 24.58 153.518 25.28C152.238 25.96 150.618 26.3 148.658 26.3C145.878 26.3 143.768 25.58 142.328 24.14C140.888 22.68 140.168 20.76 140.168 18.38V4.57999H144.008V17.99C144.008 19.73 144.408 21.01 145.208 21.83C146.008 22.63 147.198 23.03 148.778 23.03C149.898 23.03 150.798 22.84 151.478 22.46C152.178 22.08 152.688 21.51 153.008 20.75C153.348 19.97 153.518 19.04 153.518 17.96V4.57999H157.328V18.44Z" fill="#212120"/>
<path d="M135.787 15.26C135.787 16.92 135.577 18.43 135.157 19.79C134.757 21.13 134.137 22.29 133.297 23.27C132.477 24.25 131.427 24.99 130.147 25.49L135.307 31.1H130.207L126.217 26.3C126.137 26.3 126.047 26.3 125.947 26.3C125.867 26.3 125.787 26.3 125.707 26.3C123.987 26.3 122.487 26.04 121.207 25.52C119.947 24.98 118.907 24.23 118.087 23.27C117.267 22.29 116.647 21.12 116.227 19.76C115.827 18.4 115.627 16.89 115.627 15.23C115.627 13.01 115.987 11.08 116.707 9.44C117.447 7.8 118.557 6.53 120.037 5.63C121.537 4.71 123.437 4.25 125.737 4.25C127.997 4.25 129.867 4.71 131.347 5.63C132.827 6.53 133.937 7.81 134.677 9.47C135.417 11.11 135.787 13.04 135.787 15.26ZM119.677 15.26C119.677 16.88 119.887 18.27 120.307 19.43C120.747 20.59 121.407 21.48 122.287 22.1C123.187 22.72 124.327 23.03 125.707 23.03C127.127 23.03 128.277 22.72 129.157 22.1C130.037 21.48 130.687 20.59 131.107 19.43C131.527 18.27 131.737 16.88 131.737 15.26C131.737 12.84 131.267 10.94 130.327 9.56C129.387 8.18 127.857 7.49 125.737 7.49C124.337 7.49 123.187 7.8 122.287 8.42C121.407 9.04 120.747 9.93 120.307 11.09C119.887 12.25 119.677 13.64 119.677 15.26Z" fill="#212120"/>
<path d="M112.804 26H103.804V23.81L106.384 22.85V7.75999L103.804 6.76999V4.57999H112.804V6.76999L110.224 7.75999V22.85L112.804 23.81V26Z" fill="#212120"/>
<path d="M99.9649 26H95.1949L85.0549 9.19999H84.9349C84.9549 9.63999 84.9749 10.11 84.9949 10.61C85.0349 11.09 85.0649 11.59 85.0849 12.11C85.1049 12.61 85.1249 13.12 85.1449 13.64C85.1649 14.16 85.1849 14.68 85.2049 15.2V26H81.7549V4.57999H86.4949L96.6049 21.26H96.6949C96.6749 20.86 96.6549 20.43 96.6349 19.97C96.6149 19.49 96.5949 19 96.5749 18.5C96.5749 18 96.5649 17.49 96.5449 16.97C96.5249 16.45 96.5049 15.95 96.4849 15.47V4.57999H99.9649V26Z" fill="#212120"/>
<path d="M77.9111 26H68.9111V23.81L71.4911 22.85V7.75999L68.9111 6.76999V4.57999H77.9111V6.76999L75.3311 7.75999V22.85L77.9111 23.81V26Z" fill="#212120"/>
<path d="M52 26L46.12 8.44999H46C46.02 8.84999 46.05 9.41999 46.09 10.16C46.13 10.88 46.16 11.67 46.18 12.53C46.22 13.37 46.24 14.16 46.24 14.9V26H42.79V4.57999H48.13L53.77 21.41H53.89L59.77 4.57999H65.11V26H61.45V14.72C61.45 14.04 61.46 13.3 61.48 12.5C61.52 11.68 61.55 10.91 61.57 10.19C61.61 9.44999 61.64 8.87999 61.66 8.47999H61.54L55.42 26H52Z" fill="#212120"/>
</svg>
