<svg width="20" height="20" viewBox="0 0 20 20" fill="none" xmlns="http://www.w3.org/2000/svg">
<path fill-rule="evenodd" clip-rule="evenodd" d="M20 10C20 15.5228 15.5228 20 10 20C4.47715 20 0 15.5228 0 10C0 4.47715 4.47715 0 10 0C15.5228 0 20 4.47715 20 10ZM13.125 6.875C13.125 8.60089 11.7259 10 10 10C8.27411 10 6.875 8.60089 6.875 6.875C6.875 5.14911 8.27411 3.75 10 3.75C11.7259 3.75 13.125 5.14911 13.125 6.875ZM10.0793 10.625C7.31816 10.625 5.00219 12.5308 4.375 15.0987H15.7835C15.1563 12.5308 12.8404 10.625 10.0793 10.625Z" fill="#212120"/>
</svg>
