<svg width="40" height="39" viewBox="0 0 40 39" fill="none" xmlns="http://www.w3.org/2000/svg">
<path d="M19.1902 30.5135C19.6374 30.187 20.3636 30.1878 20.8098 30.5135L30.3659 37.4883C32.1502 38.7907 33.0412 38.1496 32.3524 36.045L28.6719 24.8013C28.4996 24.2751 28.7248 23.5846 29.1724 23.261L38.7588 16.3279C40.5489 15.0334 40.2145 13.9878 38.0001 13.9927L26.1693 14.0185C25.6156 14.0197 25.0285 13.5922 24.859 13.0665L21.2277 1.80683C20.5496 -0.295632 19.4519 -0.300684 18.7722 1.80683L15.1409 13.0665C14.971 13.5935 14.383 14.0197 13.8306 14.0185L1.99988 13.9927C-0.209209 13.9878 -0.553225 15.0303 1.24111 16.3279L10.8276 23.261C11.2762 23.5854 11.4999 24.2764 11.3281 24.8013L7.64758 36.045C6.96034 38.1445 7.84544 38.7938 9.63408 37.4883L19.1902 30.5135Z" fill="#FFBE64"/>
</svg>
